<?xml version="1.0" encoding="UTF-8" standalone="no"?>
<svg
   xmlns:dc="http://purl.org/dc/elements/1.1/"
   xmlns:cc="http://creativecommons.org/ns#"
   xmlns:rdf="http://www.w3.org/1999/02/22-rdf-syntax-ns#"
   xmlns:svg="http://www.w3.org/2000/svg"
   xmlns="http://www.w3.org/2000/svg"
   xmlns:sodipodi="http://sodipodi.sourceforge.net/DTD/sodipodi-0.dtd"
   xmlns:inkscape="http://www.inkscape.org/namespaces/inkscape"
   enable-background="new 0 0 800 800"
   height="800px"
   id="Layer_1"
   version="1.1"
   viewBox="0 0 800 800"
   width="800px"
   xml:space="preserve"
   sodipodi:docname="if_shopping_1076713.svg"
   inkscape:export-filename="D:\Users\Anton\Documents\Github\munimuni\img\cartHover.png"
   inkscape:export-xdpi="15.36"
   inkscape:export-ydpi="15.36"
   inkscape:version="0.92.1 r15371"><metadata
     id="metadata13"><rdf:RDF><cc:Work
         rdf:about=""><dc:format>image/svg+xml</dc:format><dc:type
           rdf:resource="http://purl.org/dc/dcmitype/StillImage" /><dc:title></dc:title></cc:Work></rdf:RDF></metadata><defs
     id="defs11" /><sodipodi:namedview
     pagecolor="#ffffff"
     bordercolor="#666666"
     borderopacity="1"
     objecttolerance="10"
     gridtolerance="10"
     guidetolerance="10"
     inkscape:pageopacity="0"
     inkscape:pageshadow="2"
     inkscape:window-width="1920"
     inkscape:window-height="1018"
     id="namedview9"
     showgrid="false"
     inkscape:zoom="0.59"
     inkscape:cx="102.06823"
     inkscape:cy="314.83288"
     inkscape:window-x="-8"
     inkscape:window-y="-8"
     inkscape:window-maximized="1"
     inkscape:current-layer="Layer_1" /><path
     style="opacity:1;fill:#8c8b8b;fill-opacity:1;stroke:#12005a;stroke-width:0;stroke-miterlimit:4;stroke-dasharray:none;stroke-opacity:1"
     d="m 207.8807,716.40871 c -29.61756,-0.9659 -31.88439,-1.27897 -40.88811,-5.64687 -18.82505,-9.13245 -32.6168,-25.24712 -39.0996,-45.68503 -3.24768,-10.23878 -3.39073,-17.32281 -4.31217,-213.55618 l -0.95305,-202.96609 h 277.37222 277.37224 l -0.20207,107.20338 c -0.11119,58.96186 -0.68317,151.82204 -1.27119,206.35594 l -1.06911,99.15254 -6.29773,13.18893 c -7.77534,16.28345 -19.79585,28.51423 -35.19738,35.81304 -10.85686,5.14508 -11.6315,5.25432 -44.94557,6.33737 -41.80421,1.35909 -337.48817,1.20598 -380.50848,-0.19703 z"
     id="path4567"
     inkscape:connector-curvature="0" /><g
     id="g6"
     transform="translate(-827.11864,3.3898305)"
     style="fill:#4d4d4d;fill-opacity:1"><path
       d="m 696.384,238.688 c -0.649,-8.429 -7.672,-14.927 -16.118,-14.927 H 119.751 c -8.392,0 -15.377,6.407 -16.099,14.782 -0.253,2.852 -0.452,5.721 -0.452,8.645 v 387.063 c 0,56.945 46.332,103.26 103.259,103.26 h 387.082 c 56.926,0 103.258,-46.314 103.258,-103.26 V 247.188 c 0,-2.869 -0.198,-5.703 -0.415,-8.5 z m -31.929,395.563 c 0,39.113 -31.821,70.916 -70.914,70.916 H 206.459 c -39.094,0 -70.915,-31.803 -70.915,-70.916 V 256.104 h 528.911 v 378.147 z"
       id="path2"
       inkscape:connector-curvature="0"
       style="fill:#4d4d4d;fill-opacity:1" /><path
       d="m 298.456,205.296 c 0.27,0 0.542,0 0.793,-0.018 8.934,-0.433 15.811,-8.014 15.378,-16.93 -1.75,-36.279 12.002,-65.085 38.751,-81.113 27.884,-16.714 65.391,-16.714 93.278,0 26.729,16.009 40.501,44.815 38.733,81.113 -0.415,8.916 6.462,16.497 15.377,16.93 8.79,0.343 16.497,-6.443 16.931,-15.377 2.328,-48.047 -17.508,-88.296 -54.419,-110.425 -37.848,-22.651 -88.674,-22.651 -126.523,0.018 -36.928,22.11 -56.764,62.359 -54.436,110.407 0.416,8.663 7.564,15.395 16.137,15.395 z"
       id="path4"
       inkscape:connector-curvature="0"
       style="fill:#4d4d4d;fill-opacity:1" /></g><path
     style="opacity:1;fill:#4d4d4d;fill-opacity:1;stroke:#12005a;stroke-width:0;stroke-miterlimit:4;stroke-dasharray:none;stroke-opacity:1"
     d="m -637.2538,738.93068 c -32.78863,-5.63764 -62.5244,-28.83624 -76.73481,-59.86525 -9.68158,-21.14014 -9.58593,-18.81139 -9.6063,-233.89831 -0.0109,-115.30724 0.63483,-200.27824 1.55213,-204.23729 0.86396,-3.72881 3.2184,-8.1144 5.23209,-9.74576 3.45458,-2.79868 19.8081,-2.9661 289.72638,-2.9661 269.91829,0 286.2718,0.16742 289.72639,2.9661 2.01368,1.63136 4.36812,6.01695 5.23209,9.74576 2.1582,9.3148 2.08739,394.82765 -0.0753,409.78383 -5.77329,39.92566 -30.32676,69.37556 -70.68776,84.78424 l -9.78868,3.73702 -210.16949,0.21217 c -115.59322,0.11668 -212.07627,-0.1157 -214.40678,-0.51641 z m 417.14154,-31.07541 c 21.81344,-4.10628 40.11797,-18.17247 50.20443,-38.57978 l 6.38284,-12.91405 0.45111,-198.81751 0.45111,-198.81749 h -264.43417 -264.43415 v 196.5466 196.54657 l 3.63952,9.80936 c 8.77608,23.65354 29.08573,41.52927 52.36947,46.09347 10.96087,2.1486 403.99396,2.27431 415.36984,0.13288 z"
     id="path4607"
     inkscape:connector-curvature="0" /></svg>